<svg xmlns="http://www.w3.org/2000/svg" width="400" height="400">
  <defs>
    <path id="scribble-30" d="M15.5 135.2c.1-1.8.6-4.7 1.4-8.2.8-3.5 1.9-7.7 3.3-12.2 2.7-9.1 6.3-19.7 10-29.8s7.5-19.7 10.5-26.7c1.5-3.5 2.8-6.3 3.7-8.2.5-.9.9-1.6 1.1-1.9.1-.1.2-.2 0 0-.1.1-.2.3-.6.5s-.7.2-1.1.3c-.3.1-.8.2-1.3.2-.4 0-.8-.1-1.2-.2s-.5-.2-.7-.3-.2-.1-.2-.1h-.1c.1.1.4.8.8 1.7.8 1.9 1.7 4.9 2.7 8.6 2 7.3 4.1 17.3 6.3 27.4 2.1 10.1 4.3 20.2 6.3 28 1 3.9 2 7.3 3 9.9s1 4.7 1.7 5.8c.4.6.8 1.1 1.4 1.7.3.3.7.6 1.2.9.5.3 1.1.6 1.9.7.9.2 1.8.2 2.6 0 .8-.1 1.5-.4 2-.7 1.1-.6 1.8-1.2 2.3-1.7 4.6-4.8 7.9-10.5 10.5-16.5s4.5-12.3 6.3-18.5c1.9-6.2 3.6-12.3 5.8-17.8 2.1-5.4 4.7-10.3 7.9-14.1-3.3-.8-6.7-1.6-10-2.4.1.3.2 1 .3 1.8.1.9.3 1.9.4 3.1.3 2.4.6 5.4.9 8.8.7 6.8 1.6 15.1 2.7 23.1.6 4 1.2 8 1.9 11.7.8 3.7 1.6 7.2 2.6 10.3 1 3.1 2.1 5.8 3.7 8.2.8 1.2 1.8 2.4 3.3 3.4.7.5 1.5.9 2.4 1.2.9.3 2 .4 3 .4h.1c1.1-.1 2.1-.3 2.9-.6.9-.3 1.7-.8 2.4-1.2 1.4-1 2.5-2.1 3.5-3.3 2-2.4 3.7-5.3 5.4-8.6 3.4-6.5 6.6-14.7 10-22.5 1.6-3.9 3.3-7.7 5-11.1 1.7-3.4 3.4-6.4 5-8.7.8-1.1 1.5-2.1 2.2-2.8.7-.7 1.3-1.2 1.7-1.5.4-.3.6-.3.7-.4.1 0 .1-.1.3 0-.4-.2-.5-.3-.5-.3s0 0 0 0 0 0 0 0c0 0 .1.1.2.2.1.1.2.2.3.4.3.4.8 1.1 1.4 2.1 1.2 2 2.7 5 4.3 8.6 2.4 5.5 5 12.5 7.7 20s5.5 15.4 8.2 23c2.6 7.5 5.2 14.7 7.3 20.7 2.1 6 3.8 10.7 5 13.3.5 1.2 2.5.5 2.1-.7-.8-2.7-1.9-7.5-3.2-13.7-1.4-6.2-3-13.6-4.8-21.5-1.8-7.8-3.9-16.1-6-23.9-2.2-7.8-4.4-15.1-6.7-21.1-1.5-4-3-7.4-4.5-10.2-.8-1.4-1.6-2.6-2.5-3.7-.5-.6-1-1.1-1.6-1.6-.6-.5-1.3-1-2.2-1.4-1.8-.8-3.8-1.1-5.7-.9-1.9.2-3.7.9-5.2 1.8-1.5.9-2.8 2-4 3.2-1.2 1.2-2.4 2.6-3.4 4.1-2.2 3-4.1 6.4-6 10.1-1.9 3.7-3.7 7.6-5.5 11.6-3.5 7.9-6.8 15.9-9.8 21.7-1.5 2.9-2.9 5.2-4 6.4-.5.6-.9 1-1 1.1l-.1.1h-.1c0 0-.1 0-.1-.1s.1-.2.3-.4.4-.3.6-.4c.2-.1.5-.2.9-.3.4-.1.9-.1 1.3 0 .6.1 1 .3 1.3.5.3.2.5.4.6.5.1.1.2.2.3.3s.1.1.1.1l-.1-.1c-.1-.2-.5-.9-.9-1.9-.8-1.9-1.8-5-2.8-8.7-2.1-7.5-4.5-17.5-6.9-27.5s-4.8-20.1-7.1-27.7c-1.1-3.8-2.2-7-3.3-9.5-.6-1.3-1.1-2.3-1.9-3.4-.4-.5-.9-1-1.6-1.5-.3-.3-.7-.5-1.3-.7-.5-.2-1.1-.3-1.7-.3-.6 0-1.1.1-1.4.3-.4.1-.7.3-.9.4-.5.3-.7.6-.9.8-.4.5-.7.8-.9 1.2-.5.8-1 1.7-1.5 2.8-1.1 2.2-2.3 5.2-3.8 8.8-2.9 7.3-6.4 17.1-9.8 27.4-3.4 10.3-6.8 21.1-9.3 30.5-1.3 4.7-2.3 9-3.1 12.7-.7 3.7-1.2 6.8-1.2 9.2 0 3.1 5.4 3.2 5.5.2z" />
    <path id="scribble-28" d="M10 76.2c3.4 23.6 6 39 7.9 64.8.1 1.1 1 2 2.1 2.2 1.1.2 2.2-.5 2.6-1.5 4.2-11.6 4.7-23.8 5.2-35.7.5-11.9 1-23.5 4.8-34-.1-.1-1.9-.2-3.7-.3.2.9.4 2.6.7 4.9.2 2.3.5 5.2.8 8.4.5 6.4 1.1 14.2 1.8 21.8.7 7.6 1.5 15 2.4 20.6.4 2.8.9 5.2 1.5 7 1 1 1.3 1.8 1.7 2.6.2.4.5.8.9 1.2.4.4 1.1.9 2.1 1.1.5.1 1.1.1 1.5-.1.5-.1.8-.3 1.1-.5.5-.4.7-.8.9-1 1.2-1.8 1.3-2.5 1.4-3.5 0-.5 0-.8 0-.9 0-.1 0-.1-.1-.2-.1-.1-.1-.1-.1-.1s0 0 .1.1c.1.1.1.2.1.3.1.5.2 1.3.4 2.3.4 5.3.8 12.4 1.4 20.1.6 7.7 1.2 15.8 2.2 23.1.5 3.7 1 7.1 1.6 10.1.6 3 1.3 5.5 2 7.4-2.2-.2-4.4-.3-6.5-.5 2.3 12.1 2 25.6 2.5 39.2.5 12.6 1.6 25.2 6.5 36.8.6 1.4 2.1 2.2 3.5 2.1 1.4-.1 2.7-1.3 3-2.8 1.2-6.3 2.2-14.3 3-22.8.8-8.5 1.4-17.5 2-25.8.5-8.3 1-15.8 1.3-21.2.2-2.7.4-4.9.6-6.3.1-.7.2-1.2.2-1.4 0-.1 0-.1 0-.1s0 .1-.1.2c-.1.1-.2.3-.5.7-.2.2-.4.4-.8.6-.4.2-.9.5-1.6.5-.7 0-1.4-.2-1.8-.5-.4-.2-.7-.5-.8-.7-.3-.4-.4-.6-.5-.7-.1-.3-.1-.3-.1-.4v-.1s.1.1.1.2c.1.1.1.2.2.5.1.5.3 1.2.5 2.2.3 2 1.3 11.7 2.5 21.8 1.2 10 2.4 20.4 3.4 28.9.5 4.3.9 8.1 1.2 11.1.3 3 .5 5.3.6 6.5.1.8.4 1.6 1 2.1.6.6 1.3.9 2.1.9.8 0 1.6-.3 2.2-.8.6-.5 1-1.2 1.1-2 3.6-28 3.7-59 5.8-87.3-2 1.5-4 1.7-6 .1 6.9 28.2 7.4 59.4 9.1 85.9.1.7.4 1.4.9 1.8.5.5 1.1.8 1.8.9.7.1 1.3-.1 1.9-.4.6-.4 1-.9 1.2-1.6 3.8-13.2 3.9-29.9 3.7-46.5-.3-16.6-1.1-33.1.5-45.3-1.8.1-3.6.3-5.4.4 7.1 23.8 9.8 50 14.9 73.5.1.7.5 1.3 1 1.7s1.2.5 1.8.5c.6-.1 1.3-.4 1.7-.9.4-.5.7-1.1.7-1.8 0-11.8-.8-37.4-.2-54.7.4-12 1.6-23.3 3.9-30.8-1.9.1-3.8.3-5.8.4 3.4 8.1 5.1 16.7 6 25.9s1.1 18.9 1.4 29.3c.3 8.9.7 18.3 1.9 28.1.1 1 .6 1.9 1.3 2.5.7.6 1.5 1 2.4 1 .9 0 1.8-.3 2.5-.9.7-.6 1.2-1.4 1.4-2.2 2.9-15.1 5.2-35.6 8.3-53.1 1-5.8 2.1-11.3 3.3-16.1-2.1 0-4.2.1-6.2.1 4 16.2 3 33 3.5 50.3.2 7 .7 14.1 1.9 21.2.2 1.1.7 1.9 1.4 2.5.7.6 1.7.9 2.6.9.9 0 1.8-.4 2.5-1 .7-.6 1.2-1.5 1.3-2.4.6-6 1.1-13.8 1.6-22.3.6-8.5 1.2-17.6 2.2-26.2 1.3-12.1 2.8-23.2 4.4-29.9-1.9-.1-3.8-.2-5.7-.3 2.9 25 4.3 52.9 4.6 77.7 0 .9.4 1.7 1 2.3.6.6 1.4 1 2.3 1 .9 0 1.8-.3 2.4-.9.7-.6 1.1-1.4 1.2-2.3.4-4 2-20.8 3.5-36.3.8-7.7 1.6-15.1 2.2-20.3.3-2.6.6-4.7.8-5.9 0-.3.1-.6.1-.7 0-.1.1-.1.1-.2 0-.1-.1 0-.2.1-.2.1-.4.3-.9.6-.3.2-.6.4-1.1.5-.4.1-.9.2-1.4.1-.5-.1-1-.2-1.4-.4-.4-.2-.7-.4-.9-.6-.4-.4-.6-.7-.7-.9-.1-.2-.2-.4-.2-.5 0-.1.1.1.1.2.1.2.2.5.3.7.1.7.3 1.6.5 2.6.4 2.1.9 5 1.4 8.3 1.1 6.6 2.3 15 3.3 22.9.8 5.8 1.4 11.4 1.8 15.9.2 2.2.3 4.1.3 5.6 0 .7 0 1.4 0 1.9 2.5.3 5.1.7 7.6 1 2.6-12.5 4.3-25.1 5.9-37.8 1.1-8.5 2.3-16.9 3.5-25.4-2.3 0-4.5 0-6.8-.1 1.4 10.6 2.8 21.3 4.4 31.9 2.3 15.6 4.5 31.3 7.5 46.9.5 2.8 5.5 1.9 5-.9-2.6-15.5-4.5-31.1-6.4-46.8-1.3-10.6-2.5-21.2-3.8-31.9-.1-.8-.5-1.6-1.1-2.1-.6-.5-1.4-.8-2.2-.9-.8 0-1.6.3-2.2.8-.6.5-1.1 1.2-1.2 2.1-1.4 8.5-2.8 17-4 25.5-1.8 12.7-3.6 25.5-4 38.6 0 1 .4 1.9 1 2.6.6.7 1.5 1.2 2.4 1.3.9.1 1.9-.1 2.6-.6.8-.5 1.4-1.3 1.6-2.3.2-.7.2-1.4.3-2.1v-2.4c-.1-1.7-.2-3.8-.4-6.1-.4-4.7-1.1-10.4-1.9-16.3-1.1-8-2.3-16.4-3.5-23.1-.6-3.3-1.1-6.2-1.5-8.4-.2-1.1-.4-2-.6-2.8-.1-.4-.2-.6-.3-1-.1-.2-.2-.4-.3-.7-.1-.3-.3-.6-.7-1-.2-.2-.5-.5-.9-.7-.4-.2-.9-.4-1.4-.4-.5 0-1 .1-1.4.2-.4.1-.8.3-1.1.5-.5.4-.8.7-.9 1-.2.3-.3.4-.4.6-.2.3-.2.5-.3.7-.1.4-.1.6-.2 1-.1.3-.2.7-.2 1.1-.3 1.5-.5 3.6-.8 6.3-.6 5.4-1.3 12.8-2 20.6-1.4 15.5-2.7 32.4-3 36.4 2.3.1 4.6.2 6.9.3-.6-25-2.5-52.9-5.6-78.1-.1-.7-.4-1.4-.9-1.8s-1.2-.8-1.8-.8c-.7 0-1.4.2-1.9.6-.5.4-.9 1-1.1 1.7-1.7 7.2-3.1 18.4-4.4 30.6-.9 8.7-1.9 17.8-3 26.2-1 8.4-2 16.1-2.8 22-2.6 0-5.2 0-7.8-.1.7-6.7 1-13.5 1.2-20.4-.5-16.9-.7-34.6-5.8-51.7-.2-.8-.7-1.4-1.2-1.8s-1.2-.6-1.9-.5c-.7 0-1.4.3-1.9.7-.5.5-.9 1.1-1 1.8-.1 5-1.1 11-2.1 16.9-3.1 17.7-6.6 38-10 52.5 2.5.1 5.1.3 7.6.4-.7-9.6-.9-18.8-1.2-27.7-.4-10.4-.8-20.4-1.2-30.4-1.4-9.6-3.7-18.8-7.8-27.4-.6-1.2-1.9-1.9-3.1-1.8-1.2.1-2.3 1-2.6 2.2-2.2 8.6-3 20.1-3.3 32.3-.5 17.6.2 36.4.2 48 1.8-.2 3.5-.4 5.3-.6-5-23.1-7.7-49.4-14.9-73.9-.4-1.2-1.6-2.1-2.9-2-.1 0-.1 0-.2.1-1.2.1-2.3 1.1-2.5 2.4-1.8 13-1.5 29.6-1.8 46.1-.3 16.5-.6 32.9-4.1 44.8 1.9.2 3.8.4 5.7.6-1.5-12.2-2.3-25.1-2.7-37.6-.4-12.5 0-24.7-2.5-37.7-.2-.7-.7-1.4-1.2-1.8s-1.2-.6-1.9-.5c-.7 0-1.4.3-1.9.7-.5.5-.9 1.1-1 1.8-3.6 28.6-3.9 59.5-7.5 87-2.1-.1-4.3-.2-6.4-.3-.1-1.4-.3-3.7-.6-6.8-.3-3.1-.7-6.9-1.1-11.2-.9-8.5-2.1-18.9-3.3-29-1.2-10.1-2.4-19.8-3.4-27.1-.5-3.6-1-6.6-1.4-9-1.3-.7-1.4-.9-1.5-1.2-.1-1.1-.5-1.8-1-2.3-.5-.5-1.2-.8-1.9-.8-.7 0-1.4.3-1.9.8-.5.5-.8 1.2-.9 2-3.7 28.7-3.9 59.5-7.5 87 2.1.1 4.3.2 6.4.3-.1-1.4-.3-3.7-.6-6.8s-.7-6.9-1.1-11.2c-.9-8.5-2.1-18.9-3.3-29s-2.4-19.8-3.4-27.1c-.5-3.6-1-6.6-1.4-9-.5-.7-.6-1.5-.7-2.2-.1-.8-.5-1.5-1.1-2s-1.3-.8-2.1-.8c-.8 0-1.6.3-2.1.8s-.9 1.3-1 2.1c-.2 1.3-.5 3.1-.8 5.6-3.8 11.7-4.1 23.9-4.4 35.8-.3 11.9-.7 23.5-4.4 34.2 1.5.2 3.1.4 4.6.6-2.4-10.7-3.2-26.3-3.5-39.2-3.7-23.4-1-1.5 3.8-.5z" />
    <path id="scribble-43" d="M13.8 139.6c-.8-9.4 1.6-16.9 5.4-22.3 3.8-5.5 9.2-8.9 14.2-10.2 2.5-.7 4.9-.8 7-.4s4.2 1.2 5.6 2.6c1.4 1.3 2.5 3.1 3 5.7.5 2.6.5 5.9-.4 10-.1.3-.1.5-.2.8 0 .2-.2.7-.4 1.3-.2.6-.5 1.4-.9 2.2-.7 1.6-1.7 3.4-2.7 4.9-.5.8-1 1.5-1.5 2-.5.5-1 .9-1.3 1.1-.4.2-.5.2-.5.2 0 0-.1 0-.4-.2-.7-.7-1.2-1.5-1.5-2.5-.3-1-.5-2.3-.4-3.7.1-2.9 1.1-6.5 2.5-10.1 1.4-3.6 3.2-7.3 4.9-10.5s3.4-5.9 4.5-7.6c1.1-1.8 2.8-4 4.8-6.2 2-2.2 4.3-4.3 6.7-5.9s4.9-2.7 7.1-3c1.1-.2 2.2-.1 3.2.1 1 .2 2 .6 3 1.3 1 .7 1.8 1.6 2.5 2.6.7 1.1 1.2 2.3 1.6 3.7.8 2.8.9 6.1.5 9.5-.4 3.4-1.4 6.9-2.7 9.8s-3 5.2-4.6 6.7c0 0 0 0-.1.1s-.1.1 0 .1c.1 0 .2-.1.4-.1.2 0 .5-.1.9-.1.2 0 .5 0 .9.1.4.1.7.3.9.5.2.2.3.4.4.5.1.1.1.1.1.1s-.1-.2-.1-.5c-.1-.6-.1-1.6 0-2.8.1-1.2.2-2.5.4-4 .3-2.8.9-5.9 1.4-8.5.2-1.3.5-2.4.7-3.3.1-.4.2-.8.3-1.1.1-.3.1-.5.1-.6.9-2.8 3-6.5 5.9-10.1s6.5-7.3 10.4-10.1c3.9-2.8 8-4.9 11.7-5.5 1.9-.3 3.7-.3 5.3.1 1.7.4 3.3 1.1 4.9 2.4.7.6 1.2 1.3 1.5 2.5s.3 2.6.2 4.2c-.2 3.3-1.4 7.4-3.1 11.1-1.7 3.7-3.8 7.2-5.7 9.3-.9 1-1.8 1.7-2.2 1.9-.1 0-.2.1-.2.1h-.1c.1-.1.1-.1.1-.1 0-.1-.1-.1-.1-.1s-.1-.1-.2-.1h-.1c-.5-.4-.9-.8-1.2-1.3-.3-.5-.4-1-.5-1.7-.2-1.3 0-3.1.8-5.2 1.5-4.2 4.9-9.5 9.1-14.6 4.2-5.1 9.1-10 13.4-13.7 2.2-1.9 4.2-3.5 5.9-4.6.8-.6 1.6-1 2.2-1.4.6-.3 1.1-.5 1.4-.6 5.8-1.7 10.3-1.7 13.5-.8 1.6.5 2.9 1.1 3.9 2s1.7 1.9 2.3 3.1c1.1 2.4 1.4 5.5.5 9.1-.9 3.6-3 7.7-6.4 11.6-.2.3-.5.6-.8 1s-.7.9-1.1 1.4c-.8 1-1.8 2.1-2.7 3.1s-1.9 1.8-2.5 2.1c-.1.1-.2.1-.3.2h-.1l-.1-.1c.1-.1.2-.1.4-.2.2-.1.3-.1.5 0s.3.2.4.3c-.1-.1-.1-.1-.2-.2s-.2-.4-.2-.7c-.1-.5-.1-1.4.1-2.4.4-2.1 1.5-5 2.9-7.9s3.1-5.7 4.7-8 1.6-3.1 2.4-4.2c.8-1.2 1.5-2.2 2.2-3 .6-.8 1.2-1.4 1.4-1.6 4.1-3.7 7.8-5.9 10.9-7.1 3.1-1.2 5.6-1.2 7.6-.7 2 .5 3.7 1.7 5.1 3.6 1.4 1.9 2.5 4.5 3.2 7.5 1.4 6.1.9 14.1-1.8 21.9s-7.6 15.4-14.9 21c-1.3 1-1.5 2.8-.5 4.1 1 1.3 2.8 1.5 4.1.5 8.3-6.4 13.8-14.9 16.9-23.7 3-8.7 3.6-17.7 2-25.1-.8-3.7-2.2-7-4.3-9.7-2.1-2.7-4.9-4.8-8.2-5.7-3.4-.9-7.2-.6-11.2.9-4 1.5-8.2 4.2-12.7 8.2-.7.6-1.3 1.4-2.1 2.3-.8.9-1.6 2.1-2.4 3.3-1.7 2.5-3.5 5.6-5.1 8.7-1.6 3.1-2.9 6.4-3.4 9.4-.3 1.5-.4 3-.1 4.5.1.7.4 1.5.8 2.2s1 1.4 1.6 1.9c.5.4 1 .7 1.6.8.6.2 1.1.2 1.7.2 1 0 1.9-.3 2.6-.7 1.5-.8 2.7-1.9 3.9-3.1 1.2-1.2 2.2-2.5 3.1-3.5.4-.5.8-1 1.1-1.4.3-.4.6-.7.7-.8 3.9-4.5 6.5-9.3 7.6-14 1.2-4.6 1-9.2-.8-13-.9-1.9-2.2-3.6-3.9-5s-3.7-2.4-5.9-3.1c-4.6-1.3-10.1-1.1-16.7.8-.8.2-1.6.6-2.5 1-1 .5-1.9 1.1-2.9 1.7-1.9 1.3-4.1 3-6.4 5-4.6 4-9.6 9-14.1 14.4s-8.1 11-10 16.3c-.9 2.7-1.4 5.3-1.1 7.9.2 1.3.6 2.5 1.3 3.7.7 1.1 1.6 2.1 2.8 3 .8.6 2 .9 2.9.9s1.8-.3 2.5-.7c1.4-.7 2.7-1.8 3.9-3.1 2.4-2.7 4.7-6.5 6.6-10.7 1.9-4.2 3.3-8.8 3.5-13.1.1-2.2 0-4.3-.6-6.3-.6-2-1.7-3.9-3.4-5.2-2.2-1.8-4.6-2.9-7.1-3.5-2.5-.6-5-.6-7.5-.2-5 .9-9.8 3.3-14.1 6.5-4.4 3.2-8.3 7.2-11.5 11.2-3.2 4-5.6 8.1-6.8 11.8-.1.3-.2.6-.3.9-.1.4-.2.8-.3 1.2-.2.9-.5 2.1-.7 3.4-.5 2.6-1 5.8-1.4 8.8-.2 1.5-.3 3-.4 4.3-.1 1.4-.1 2.6 0 3.7.1.6.2 1.1.4 1.7.1.3.2.6.4.9.2.3.5.7.9 1 .4.3.9.5 1.5.6.5.1 1 0 1.5-.1.9-.2 1.5-.7 2-1.1 2.4-2.2 4.4-5.3 6-8.8 1.5-3.5 2.6-7.4 3.1-11.4.5-4 .4-8-.6-11.7-.5-1.8-1.2-3.6-2.3-5.2-1-1.6-2.3-3-3.9-4.1-1.6-1.1-3.3-1.8-5-2.2-1.7-.4-3.4-.4-5.1-.1-3.3.5-6.5 2-9.3 3.9s-5.5 4.3-7.7 6.7c-2.2 2.4-4.1 4.9-5.4 7.1-1.1 1.8-2.8 4.6-4.6 7.9-1.8 3.3-3.7 7.1-5.2 11.1-1.5 3.9-2.6 8-2.8 11.8-.1 1.9.1 3.8.7 5.5.6 1.8 1.6 3.4 3 4.7 1 .9 2.2 1.5 3.5 1.6s2.5-.1 3.5-.7c1-.5 1.8-1.2 2.6-2 .8-.8 1.5-1.7 2.1-2.6 1.3-1.9 2.4-3.9 3.2-5.7.4-.9.8-1.7 1-2.5.3-.8.5-1.4.6-2 .1-.3.2-.6.2-.9 1-4.6 1-8.7.3-12.1-.8-3.4-2.4-6.2-4.6-8.2-2.2-2-5-3.2-7.9-3.7-2.9-.5-6-.2-9.1.7-6.1 1.8-12.2 6-16.4 12.4-4.2 6.4-6.6 14.9-5.4 25.1.2 1.9 3.6 1.5 3.4-.4z" />
  </defs>

  <rect width="400" height="400" fill="transparent" />

  <g transform="rotate(90, 200, 200)">
    <use href="#scribble-30" x="20" y="20" transform="rotate(15, 100, 100)" fill="#000000" opacity="0.3" />
    <use href="#scribble-28" x="150" y="150" transform="rotate(-10, 250, 250)" fill="#000000" opacity="0.4" />
    <use href="#scribble-43" x="220" y="10" transform="rotate(45, 300, 100)" fill="#000000" opacity="0.2" />
    <use href="#scribble-30" x="50" y="250" transform="rotate(180, 150, 350)" fill="#010101" opacity="0.25" />
  </g>
</svg>